<?xml version="1.0" standalone="no"?>
<!DOCTYPE svg PUBLIC "-//W3C//DTD SVG 20010904//EN"
 "http://www.w3.org/TR/2001/REC-SVG-20010904/DTD/svg10.dtd">
<svg version="1.0" xmlns="http://www.w3.org/2000/svg"
 width="141.000000pt" height="131.000000pt" viewBox="0 0 141.000000 131.000000"
 preserveAspectRatio="xMidYMid meet">

<g transform="translate(0.000000,131.000000) scale(0.100000,-0.100000)"
fill="#000000" stroke="none">
<path d="M0 655 l0 -655 705 0 705 0 0 655 0 655 -705 0 -705 0 0 -655z m943
485 c21 -24 27 -64 27 -188 l0 -140 86 -62 c54 -40 97 -80 115 -108 28 -44 29
-50 28 -161 l-2 -116 -8 115 c-6 76 -15 127 -26 149 -11 21 -52 60 -103 98
l-85 63 -3 -101 c-3 -110 -7 -100 67 -156 9 -6 14 -14 11 -17 -3 -3 -48 28
-99 69 -52 41 -101 75 -109 75 -22 0 -52 -30 -52 -51 0 -10 38 -62 85 -116
l85 -98 0 -63 c0 -70 14 -112 54 -159 15 -18 24 -33 19 -33 -5 0 -25 25 -46
56 -33 51 -37 63 -37 123 l0 67 -85 96 c-66 75 -85 104 -85 127 0 65 63 81
125 31 21 -16 39 -30 41 -30 2 0 4 110 4 245 0 232 -1 246 -20 265 -19 19 -33
20 -319 20 -270 0 -301 -2 -319 -17 -20 -17 -21 -32 -30 -473 l-9 -455 -1 453
c-1 305 1 460 9 473 6 11 19 23 29 27 21 8 646 0 653 -8z m-353 -109 c0 -12 9
-22 23 -27 26 -7 57 -33 57 -46 0 -5 -12 0 -26 11 -55 44 -155 7 -141 -51 7
-27 35 -42 97 -52 92 -16 107 -107 24 -142 -22 -9 -34 -21 -34 -34 0 -11 -4
-20 -10 -20 -5 0 -10 11 -10 25 0 18 -5 25 -18 25 -10 0 -29 11 -42 25 -28 30
-18 33 17 5 14 -11 37 -20 50 -20 32 0 79 25 87 46 9 24 -20 63 -52 69 -74 15
-107 31 -120 59 -19 38 -3 73 43 92 23 9 35 21 35 34 0 11 5 20 10 20 6 0 10
-9 10 -19z m63 -488 l-53 -4 0 -60 0 -59 79 0 c44 0 83 -4 86 -10 4 -6 -25
-10 -79 -10 l-86 0 0 -60 0 -59 118 -4 c71 -1 35 -3 -93 -5 -116 -1 -215 2
-222 6 -13 8 -22 240 -10 260 6 9 48 12 160 10 84 -1 128 -3 100 -5z m579
-251 c17 -24 28 -46 25 -48 -7 -7 -67 90 -66 107 0 11 2 11 6 -1 3 -8 19 -34
35 -58z m-952 -127 c14 -19 14 -19 -2 -6 -10 7 -18 18 -18 24 0 6 1 8 3 6 1
-2 9 -13 17 -24z m423 -22 c-72 -2 -194 -2 -270 0 -76 1 -16 3 132 3 149 0
211 -2 138 -3z"/>
<path d="M413 533 c-8 -3 -13 -25 -13 -59 l0 -54 90 0 90 0 0 60 0 60 -77 -1
c-43 0 -84 -3 -90 -6z"/>
<path d="M402 343 l3 -58 90 0 90 0 -1 40 c-3 81 5 75 -94 75 l-91 0 3 -57z"/>
</g>
</svg>
